# xmcd
#
# Track frame offsets:
# 150
# 9477
# 21932
# 36012
# 49390
# 64945
# 78495
# 89152
# 103205
# 116725
# 134275
# 145927
# 162725
# 179237
# 192525
# 205930
# 218632
# 230222
# 247367
# 263030
# 278100
# 294520
# 308982
#
# Disc length: 4291 seconds
#
#
# Revision: 2
# Processed by: cddbd v1.5.1PL0 Copyright (c) Steve Scherf et al.
# Submitted via: FreeRIP 2.942 
#
DISCID=7910c117
DTITLE=Barbara Mandrell - Ultimate Collection
DYEAR=2001
DGENRE=Country
TTITLE0=Tonight My Baby's Coming Home
TTITLE1=The Midnight Oil
TTITLE2=Standing Room Only
TTITLE3=Married But Not To Each Other
TTITLE4=Woman To Woman
TTITLE5=Tonight
TTITLE6=Sleeping Single In A Double Bed
TTITLE7=(If Loving You Is Wrong) I Don't Wanna Be Right
TTITLE8=Fooled By A Feeling
TTITLE9=Years
TTITLE10=Crackers
TTITLE11=The Best Of Strangers
TTITLE12=I Was Country When Country Wasn't Cool (Duet With George Jones)
TTITLE13=Till You're Gone
TTITLE14=In Times Like These
TTITLE15=One Of A Kind Pair Of Fools
TTITLE16=Happy Birthday Dear Heartache
TTITLE17=Only A Lonely Heart Knows
TTITLE18=There's No Love In Tennessee
TTITLE19=Angel In Your Arms
TTITLE20=Fast Lanes And Country Roads
TTITLE21=No One Mends A Broken Heart Like You
TTITLE22=I Wish That I Could Fall In Love Today
EXTD=Hipo Records
EXTT0=
EXTT1=
EXTT2=
EXTT3=
EXTT4=
EXTT5=
EXTT6=
EXTT7=
EXTT8=
EXTT9=
EXTT10=
EXTT11=
EXTT12=
EXTT13=
EXTT14=
EXTT15=
EXTT16=
EXTT17=
EXTT18=
EXTT19=
EXTT20=
EXTT21=
EXTT22=
PLAYORDER=
